Coordinates
version=1
nRows=14
nColumns=40
inDegrees=yes

Units are S.I. units (second, meters, Newtons, ...)
Angles are in degrees.

endheader
time	pelvis_tilt	pelvis_list	pelvis_rotation	pelvis_tx	pelvis_ty	pelvis_tz	hip_flexion_r	hip_adduction_r	hip_rotation_r	knee_angle_r	knee_angle_r_beta	ankle_angle_r	subtalar_angle_r	mtp_angle_r	hip_flexion_l	hip_adduction_l	hip_rotation_l	knee_angle_l	knee_angle_l_beta	ankle_angle_l	subtalar_angle_l	mtp_angle_l	lumbar_extension	lumbar_bending	lumbar_rotation	arm_flex_r	arm_add_r	arm_rot_r	elbow_flex_r	pro_sup_r	wrist_flex_r	wrist_dev_r	arm_flex_l	arm_add_l	arm_rot_l	elbow_flex_l	pro_sup_l	wrist_flex_l	wrist_dev_l
      3.01000000	     -6.05417335	     -6.49417958	      4.17064427	      1.00672319	      0.92734444	      0.49283859	     15.32053631	      3.93864786	    -18.91670920	     16.33861103	     16.33861103	      9.76755527	      2.71025358	     -1.22246547	     34.24587629	    -13.58290809	      5.02662928	     70.79907712	     70.79907712	      3.21998292	    -15.93610795	      5.85975336	    -11.93225953	      4.99990425	      3.00431354	     12.13766317	    -16.99994759	     -2.74890209	     55.61280850	     45.55390663	      0.00000000	      0.00000000	      2.01300257	     -8.87049197	     -3.04918806	     40.48896566	     46.08010474	      0.00000000	      0.00000000
      3.02157143	     -6.18308711	     -6.51951697	      4.28087188	      1.00465237	      0.92797373	      0.49368178	     14.60345643	      4.14657590	    -19.11622396	     15.55408738	     15.55408738	      9.82612473	      3.23065326	     -1.30485963	     35.97968432	    -13.57876542	      4.79715509	     69.61616128	     69.61616128	      3.37022559	    -16.26452525	      5.74012036	    -11.96996125	      4.92798679	      2.84251607	     14.90238401	    -17.06681288	     -2.77634981	     56.98273063	     45.52000892	      0.00000000	      0.00000000	      0.79966492	     -8.73714004	     -2.70707830	     38.39901344	     46.02484748	      0.00000000	      0.00000000
      3.03314286	     -6.26862521	     -6.54433870	      4.38736137	      1.00263639	      0.92859000	      0.49440650	     13.81448425	      4.36568733	    -19.29705565	     14.70862397	     14.70862397	      9.85549407	      3.77337448	     -1.38316572	     37.49366073	    -13.53054892	      4.54743357	     68.18892393	     68.18892393	      3.48627457	    -16.60116478	      5.80636029	    -12.05703679	      4.89561744	      2.88808168	     17.47336128	    -17.30605113	     -2.60175117	     58.47501766	     45.47335994	      0.00000000	      0.00000000	     -0.30947599	     -8.57061427	     -2.30624370	     36.51765593	     45.96496524	      0.00000000	      0.00000000
      3.04471429	     -6.33940614	     -6.58729893	      4.49523674	      1.00071415	      0.92911591	      0.49505275	     13.01612271	      4.60263030	    -19.48415257	     13.86680550	     13.86680550	      9.88008953	      4.30136587	     -1.47842835	     38.82791316	    -13.48168424	      4.27671409	     66.50467755	     66.50467755	      3.62271667	    -16.87242027	      6.11342292	    -12.16035740	      4.88370874	      2.96463192	     19.96921970	    -17.59305015	     -2.31768612	     60.05230386	     45.41989433	      0.00000000	      0.00000000	     -1.37557750	     -8.40511646	     -1.83554993	     34.72443669	     45.89615991	      0.00000000	      0.00000000
      3.05628571	     -6.43373607	     -6.63434952	      4.57472555	      0.99879111	      0.92946953	      0.49554928	     12.27671250	      4.81554086	    -19.72234195	     13.07206439	     13.07206439	      9.76923787	      4.91625242	     -2.05066022	     40.04486831	    -13.41996436	      3.96594506	     64.60319056	     64.60319056	      3.97655654	    -16.98568203	      7.07892075	    -12.22319941	      4.90735339	      3.38386620	     22.17595459	    -18.55966227	     -0.89912176	     61.98996391	     45.31429449	      0.00000000	      0.00000000	     -1.76852239	     -8.19263926	     -0.43051504	     31.75603090	     45.73699346	      0.00000000	      0.00000000
      3.06785714	     -6.51771547	     -6.70592290	      4.67720942	      0.99695447	      0.92973368	      0.49589012	     11.53731861	      5.07545395	    -19.78205714	     12.29256557	     12.29256557	      9.81907066	      5.25504061	     -2.01184879	     41.06816173	    -13.33008618	      3.69286342	     62.36243944	     62.36243944	      4.09521153	    -17.16820131	      7.62172486	    -12.32309581	      4.95742492	      3.49331129	     24.59326342	    -18.69749143	     -1.09052757	     63.49541592	     45.28285487	      0.00000000	      0.00000000	     -3.03242807	     -8.04207471	     -0.09080770	     30.93182049	     45.67512422	      0.00000000	      0.00000000
      3.07942857	     -6.61120815	     -6.83308639	      4.77459339	      0.99512405	      0.92979531	      0.49605991	     10.81101728	      5.37051570	    -19.95173833	     11.50289640	     11.50289640	      9.85263217	      5.78231643	     -2.09899579	     41.97035406	    -13.24719594	      3.48631610	     59.87898917	     59.87898917	      4.34182685	    -17.19525057	      8.34763791	    -12.40110054	      5.08936206	      3.57548765	     26.94107017	    -18.88278928	     -0.88009836	     65.26092627	     45.22905712	      0.00000000	      0.00000000	     -4.20694979	     -7.89319624	      0.55263783	     30.03661306	     45.57235316	      0.00000000	      0.00000000
      3.09100000	     -6.71901392	     -6.93491923	      4.85519141	      0.99334969	      0.92973168	      0.49596069	     10.14957607	      5.60881643	    -20.06591810	     10.82269513	     10.82269513	      9.91695818	      6.18893757	     -2.17258196	     42.66989686	    -13.07458739	      3.30041709	     57.05518053	     57.05518053	      4.56532505	    -17.17856715	      8.98928644	    -12.45420316	      5.22659479	      3.73720460	     29.22124775	    -19.12081097	     -0.69718645	     66.96359959	     45.17838618	      0.00000000	      0.00000000	     -5.40047366	     -7.73552161	      1.12912713	     29.40119977	     45.47348892	      0.00000000	      0.00000000
      3.10257143	     -6.85021002	     -7.05155334	      4.92295862	      0.99158228	      0.92944977	      0.49564304	      9.55320561	      5.81618748	    -20.29726310	     10.22564286	     10.22564286	      9.95603812	      6.78253210	     -2.54528571	     43.23936092	    -12.89091839	      3.13938033	     53.98758669	     53.98758669	      4.87933698	    -16.93668918	      9.72376193	    -12.50178643	      5.40697416	      4.07242991	     31.21398737	    -19.92888900	      0.45965923	     69.44189251	     45.07884172	      0.00000000	      0.00000000	     -6.65369174	     -7.80502675	      3.09431088	     29.36248483	     45.17885085	      0.00000000	      0.00000000
      3.11414286	     -6.98291584	     -7.16038499	      4.95855426	      0.98989470	      0.92908230	      0.49517834	      8.97317818	      6.03239667	    -20.27854471	      9.67167455	      9.67167455	     10.10988642	      7.02988973	     -2.56179466	     43.57622005	    -12.64141347	      3.06633787	     50.60768531	     50.60768531	      5.10023171	    -16.64942557	     10.13079639	    -12.51248478	      5.57385002	      4.21106941	     33.48318805	    -19.86305916	      0.28490793	     70.95639748	     45.04812144	      0.00000000	      0.00000000	     -7.83925895	     -7.62628994	      3.53732057	     29.05405720	     45.09861481	      0.00000000	      0.00000000
      3.12571429	     -7.23932074	     -7.30902154	      4.97001459	      0.98815636	      0.92829296	      0.49448539	      8.62735492	      6.22295043	    -20.27901783	      9.31691291	      9.31691291	     10.35450116	      7.22834784	     -2.65742672	     43.92465857	    -12.42421447	      3.01540943	     47.10030794	     47.10030794	      5.42395289	    -15.95320395	     10.46765305	    -12.36740662	      5.80638644	      4.62450301	     35.68618789	    -20.12254872	      0.12487516	     72.21228590	     45.02361295	      0.00000000	      0.00000000	     -8.88824559	     -7.36806431	      3.78634621	     28.87303718	     45.04574111	      0.00000000	      0.00000000
      3.13728571	     -7.24590295	     -7.44592765	      5.01239856	      0.98682354	      0.92787362	      0.49363282	      7.83483918	      6.46135064	    -20.42450690	      8.67033724	      8.67033724	     10.49305989	      7.81329736	     -2.70686806	     43.71368485	    -12.14278405	      3.12408806	     43.29962286	     43.29962286	      5.74694454	    -15.28045574	     10.81035264	    -12.52111427	      6.04487110	      4.44391141	     37.76607291	    -19.79395701	      0.51390671	     74.52998400	     44.94719376	      0.00000000	      0.00000000	    -10.33393122	     -7.25588095	      4.36038598	     28.92549078	     44.93777369	      0.00000000	      0.00000000
      3.14885714	     -7.34379497	     -7.60381439	      5.02403617	      0.98556677	      0.92704800	      0.49258781	      7.22237416	      6.67272872	    -20.55923006	      8.21305959	      8.21305959	     10.78558308	      8.31549101	     -2.84324239	     43.48131144	    -11.91839043	      3.17257154	     39.51067030	     39.51067030	      6.14493438	    -14.24051524	     11.16324102	    -12.50309717	      6.34576934	      4.57362895	     39.73518821	    -19.83006584	      0.90441466	     76.56765351	     44.88118515	      0.00000000	      0.00000000	    -11.65955548	     -7.12547062	      4.94871034	     29.27264725	     44.83017649	      0.00000000	      0.00000000
      3.16042857	     -7.42337610	     -7.74774604	      4.97483090	      0.98457827	      0.92610978	      0.49149908	      6.58574999	      6.85976661	    -20.61844940	      7.79585657	      7.79585657	     11.05741986	      8.82380375	     -2.96324017	     43.08071810	    -11.71902154	      3.24457290	     35.81478632	     35.81478632	      6.61786716	    -13.03871909	     11.64798716	    -12.48715711	      6.56694179	      4.74767859	     41.62013956	    -19.80948112	      1.29274121	     78.54439903	     44.81792774	      0.00000000	      0.00000000	    -12.97746420	     -7.03311621	      5.54471339	     29.70295635	     44.72376319	      0.00000000	      0.00000000
